<svg width="16" height="16" viewBox="0 0 16 16" fill="none" xmlns="http://www.w3.org/2000/svg">
<rect width="16" height="16" fill="black"/>
<path d="M5.1 7.9C5.1 8.47333 5.02667 8.96 4.88 9.36C4.74 9.76 4.54333 10.0867 4.29 10.34C4.04333 10.5867 3.74667 10.7667 3.4 10.88C3.06 10.9933 2.69 11.05 2.29 11.05C1.87667 11.05 1.46 11 1.04 10.9V4.9C1.46 4.8 1.87667 4.75 2.29 4.75C2.69 4.75 3.06 4.80667 3.4 4.92C3.74667 5.03333 4.04333 5.21667 4.29 5.47C4.54333 5.72333 4.74 6.05 4.88 6.45C5.02667 6.85 5.1 7.33333 5.1 7.9ZM1.86 10.31C2.02667 10.33 2.19667 10.34 2.37 10.34C2.67 10.34 2.93667 10.2967 3.17 10.21C3.40333 10.1167 3.6 9.97333 3.76 9.78C3.92 9.58 4.04333 9.32667 4.13 9.02C4.21667 8.70667 4.26 8.33333 4.26 7.9C4.26 7.06 4.09667 6.44333 3.77 6.05C3.45 5.65667 2.97333 5.46 2.34 5.46C2.25333 5.46 2.16667 5.46333 2.08 5.47C2 5.47 1.92667 5.47667 1.86 5.49V10.31ZM8.74 10.36C8.74 10.56 8.67333 10.7367 8.54 10.89C8.40667 11.0433 8.23 11.12 8.01 11.12C7.78333 11.12 7.60333 11.0433 7.47 10.89C7.33667 10.7367 7.27 10.56 7.27 10.36C7.27 10.1533 7.33667 9.97333 7.47 9.82C7.60333 9.66667 7.78333 9.59 8.01 9.59C8.23 9.59 8.40667 9.66667 8.54 9.82C8.67333 9.97333 8.74 10.1533 8.74 10.36ZM8.74 7.13C8.74 7.33 8.67333 7.50667 8.54 7.66C8.40667 7.81333 8.23 7.89 8.01 7.89C7.78333 7.89 7.60333 7.81333 7.47 7.66C7.33667 7.50667 7.27 7.33 7.27 7.13C7.27 6.92333 7.33667 6.74333 7.47 6.59C7.60333 6.43667 7.78333 6.36 8.01 6.36C8.23 6.36 8.40667 6.43667 8.54 6.59C8.67333 6.74333 8.74 6.92333 8.74 7.13ZM12.04 12.65H11.19L13.98 4.01H14.81L12.04 12.65Z" fill="white"/>
</svg>
